<svg width="24" height="24" viewBox="0 0 24 24" fill="none" xmlns="http://www.w3.org/2000/svg">
<circle cx="12" cy="12" r="12" fill="#F3D245"/>
<path d="M13.2681 9.33789H10.2803V19.2748H13.2681V9.33789Z" stroke="#333333" stroke-width="0.611104" stroke-miterlimit="10" stroke-linecap="round" stroke-linejoin="round"/>
<path d="M11.7739 9.33729V8.37842" stroke="#333333" stroke-width="0.611104" stroke-miterlimit="10" stroke-linecap="round" stroke-linejoin="round"/>
<path d="M11.7518 6.29736C11.7518 6.29736 10.9776 7.33799 11.7518 8.37861" stroke="#333333" stroke-width="0.611104" stroke-miterlimit="10" stroke-linecap="round" stroke-linejoin="round"/>
<path d="M11.7939 6.29736C11.7939 6.29736 12.5682 7.33799 11.7939 8.37861" stroke="#333333" stroke-width="0.611104" stroke-miterlimit="10" stroke-linecap="round" stroke-linejoin="round"/>
<path d="M10.3146 8.18018H9.23047" stroke="#333333" stroke-width="0.611104" stroke-miterlimit="10" stroke-linecap="round" stroke-linejoin="round"/>
<path d="M10.3139 6.29836L9.27832 5.91357" stroke="#333333" stroke-width="0.611104" stroke-miterlimit="10" stroke-linecap="round" stroke-linejoin="round"/>
<path d="M13.1426 6.29836L14.1782 5.91357" stroke="#333333" stroke-width="0.611104" stroke-miterlimit="10" stroke-linecap="round" stroke-linejoin="round"/>
<path d="M14.2026 8.18018H13.1187" stroke="#333333" stroke-width="0.611104" stroke-miterlimit="10" stroke-linecap="round" stroke-linejoin="round"/>
<path d="M11.7451 4V5.04062" stroke="#333333" stroke-width="0.611104" stroke-miterlimit="10" stroke-linecap="round" stroke-linejoin="round"/>
<path d="M12.5435 11.2524H13.1422" stroke="#333333" stroke-width="0.488883" stroke-miterlimit="10" stroke-linecap="round" stroke-linejoin="round"/>
<path d="M10.2803 11.2524H11.9376L11.9545 11.5282C11.9545 11.6805 12.0832 11.8039 12.2417 11.8039C12.4004 11.8039 12.5289 11.6803 12.5289 11.5282V11.2524" stroke="#333333" stroke-width="0.488883" stroke-miterlimit="10" stroke-linecap="round" stroke-linejoin="round"/>
<path d="M7.82666 19.3486H15.7108" stroke="#333333" stroke-width="0.611104" stroke-miterlimit="10" stroke-linecap="round" stroke-linejoin="round"/>
<path d="M15.7237 19.3455C16.5241 19.3455 17.1729 18.7226 17.1729 17.9543C17.1729 17.1859 16.5241 16.563 15.7237 16.563C14.9233 16.563 14.2744 17.1859 14.2744 17.9543C14.2744 18.7226 14.9233 19.3455 15.7237 19.3455Z" stroke="#333333" stroke-width="0.611104" stroke-miterlimit="10" stroke-linecap="round" stroke-linejoin="round"/>
</svg>
